<?xml version="1.0" encoding="UTF-8"?>
<svg id="Capa_1" data-name="Capa 1" xmlns="http://www.w3.org/2000/svg" viewBox="0 0 128 128">
  <defs>
    <style>
      .cls-1 {
        fill: #141414;
      }

      .cls-2 {
        fill: #49515c;
      }

      .cls-3 {
        fill: #3c3024;
      }

      .cls-3, .cls-4, .cls-5, .cls-6, .cls-7, .cls-8, .cls-9, .cls-10 {
        isolation: isolate;
      }

      .cls-11 {
        fill: #2f667c;
      }

      .cls-4 {
        fill: #e3a66d;
      }

      .cls-5 {
        fill: #7b5b43;
      }

      .cls-6, .cls-12 {
        fill: #743e20;
      }

      .cls-7 {
        fill: #c98144;
      }

      .cls-13 {
        fill: #eaeaea;
      }

      .cls-14 {
        fill: #454f5a;
      }

      .cls-15 {
        fill: #faf8f8;
      }

      .cls-9 {
        fill: #47505b;
      }

      .cls-16 {
        fill: #ddf0f7;
      }

      .cls-17 {
        fill: #c6c4c5;
      }

      .cls-18 {
        fill: #161617;
      }

      .cls-19 {
        fill: #bcbbbb;
      }

      .cls-10 {
        fill: #414c5c;
      }
    </style>
  </defs>
  <circle class="cls-11" cx="63.89" cy="63.57" r="61.57"/>
  <g>
    <path class="cls-18" d="M47.48,53.44c-.28-.02-.56-.03-.83-.13-2.07-.72-7.92-2.8-9.35-3.69-1.75-1.1-15.35-13.15-16-13.37,0,0-.22,0,.44.88s7.55,7.96,8.99,8.99c1.53,1.1,2.19,1.97,2.19,1.97,0,0-16.88-9.65-17.76-9.65s7.89,5.92,9.43,6.8c1.53.88,6.73,3.28,6.66,3.5s-16.74-5.69-21.12-6.35,10.74,5.04,12.72,5.7c1.97.66,6.8,1.53,6.8,1.75s.88.88-2.85,0c-3.73-.88-14.47-2.19-17.76-1.97-3.29.22,16,3.51,17.32,3.51s1.82.09,1.68.38-17.68.28-18.56,1.16,16.69.44,17,.66.32.22-.56.44-13.37,2.63-13.15,2.85,11.84-.66,11.84-.44-6.58,2.19-6.36,2.41,6.58,0,6.58.22c0,0-.66.66-.44.88s2.19.44,2.41.66-.22,1.1.22,1.32,2.41.44,2.41.44c0,0,0,.88.22.88s1.1-.22,1.21,0-.11,1.1.11,1.1.89-.22.88,0,0,.66.21.88.93,0,1.23,0,.08.44.08.44h1.69s-.16,1.1.28,1.1h1.53s-.44.22.22.66,1.53.22,1.53.22c0,0,0,.66.66.88.66.22.66,0,.88.22s.22.44.44.66.88,0,1.1.22.44.22.66.44c.22.22.66-.22,1.1.22.44.44.44.88,1.1.88s.64-.44.87,0,.89.66,1.54.66,0,.28.44.58.66-.3.99,0,.11.74.76.74.84-.22.97,0-.09.44.35.44,1.05-.22,1.18,0,.57.22.79.44.61,0,.61,0c0,0,.05.22.71.44s1.75-.44,1.75-.66.44,0,.66.22.22.66.22.66c0,0-10.52,4.38-12.93,4.38s.66,1.1.88,1.1,0,.66.22.88.22.44,1.1.44,0,1.1.44,1.32.66,0,.88.22.44.22.66.22.44.44.66.66,1.75,0,1.97.22.66.66.88.66,1.32-.22,1.53-.22.22-.66.66-.44c.44.22.22.22.44.44s.46.44.78.22.53-.22.75-.22.44-.22.66-.22.44-.22.66-.22-.22.22.22.22.66.22.88,0,.22-.22.66-.22h1.1s0-.44.22-.44.88.22,1.1,0-.22-.22.44-.22.88-.22.88-.22h1.97s-.44-.4,0-.42,1.32-.02,1.32-.02c0,0,.66-3.07.22-4.17,0,0,2.85,0,4.6-1.53,0,0,.66-.22.66,0s.66.44,1.1.22c.44-.22.66,0,1.1-.22s.22-.44.66-.44c.55,0,1.1.35,1.22-.27.06-.33.3-.4.54-.17q.22.22.66.22t.66-.22c.22-.22.66-.44.66-.22s.66.44.88.44.66-.44.88-.44.66.22.66.22c0,0,.66.44.88.22s.22-.44.66-.44.66-.44.88-.22.44.22.66.22.22-.22.44-.22.44-.22.66,0,1.1-.22,1.32-.22h.88s.44.22.88,0,.22,0,.66-.22c.27-.14.6-.13.87,0,.44.22,0,0,.88-.22.88-.22.44.22.66.22s.66,0,.88-.22.44,0,.66,0,.88-.22.88-.22c0,0,.22-.22.66-.22s0-.22.44,0,.66,0,.88,0,.44,0,.66-.22.44,0,.44,0c0,0,.66.22.88,0s.44-.44.66-.44,0,.22.66.22.88-.88,1.1-.88.22-.22.44,0,.66.22,1.1,0,.22-.66.66-.66.88.22.88.22c0,0,1.1.22,1.53,0s.22-.88.88-.66,3.73,1.97,4.17,2.19.22-.66.22-.66c0,0-3.73-3.95-3.73-4.17s-.22-.44.22-.44,7.67,4.82,7.89,4.82.22-.22.22-.44-4.82-4.82-6.36-5.26c0,0-.44-.66,0-.66s7.89,3.29,9.21,3.29.44-.44.44-.44c0,0-6.58-3.73-7.89-3.95s-.44-.44-.22-.44,6.58,1.1,8.77.88c2.19-.22,2.63-.22,2.85-.44s-.88-.22-.88-.22c0,0-8.77-.66-9.21-1.1l-.44-.44s9.27-.86,10.55-1.53c1.29-.67,2.6-1.11,2.82-1.54s-.44,0-.66,0-9.87,2.63-11.4,1.97c0,0,10.52-2.41,11.84-6.8,0,0-7.02,5.7-11.18,5.7,0,0,7.67-3.29,8.55-6.36,0,0-6.14,5.7-11.84,6.8-5.7,1.1-12.06.66-12.06.66,0,0-2.41.88-3.07.88s-17.54,1.32-17.54,1.32c0,0-1.53-.88-2.63-1.1s-5.7-.44-5.92-.44-.88-.22-.88-.22l-1.75-.66s-11.62-5.04-14.47-7.89c-1.53-1.53-2.33-2.09-2.53-2.1Z"/>
    <g id="patas">
      <path class="cls-19" d="M59.22,78.34h-1.25s-.44.88-.66,1.1-1.1.44-1.32.44h-.44s-.22.66-.88.66c0,0,0-.21-.22-.11s0,.54.22.54.88-.44,1.1-.44.22.22.22.22c0,0-.88,1.1-1.1,1.1s-.62,0-.53,0c0,0-.57.22-.13.44s.88,0,1.1-.22,1.53-.88,1.75-1.1.44-.22,1.1-1.1,1.1-1.53,1.1-1.53"/>
      <path class="cls-19" d="M62.35,78.8c.28.05.38.42.16.61-.75.67-3.31,2.91-4.61,3.1-1.53.22-1.49-.52-1.29-.59s.41-.07.41-.07c0,0,0,.22.22.22s2.16-.89,2.19-1.1c0,0,.44-.22.18-.43-.14-.12-.43.03-.75.34s-.53.53-1.19.75c0,0-.66-.22-.44-.44s.66-.22.66-.22c0,0,.44-.22.66-.44s.22-.44.44-.66c.16-.16,1.53,0,1.97-.22s.88-.88,1.1-.88c.08,0,.18,0,.29.02Z"/>
    </g>
    <path class="cls-10" d="M53.21,76.42s-9.07,2.52-8.99,2.94c.09.51.36.85.77.68s8.22-3.62,8.22-3.62Z"/>
    <path class="cls-10" d="M53.52,77.01s-8.29,3.34-8.31,3.65-.19.62.56.47,7.76-4.12,7.76-4.12Z"/>
    <path class="cls-10" d="M53.52,77.81l-6.67,3.71s-.31.94,0,.85,6.67-4.56,6.67-4.56Z"/>
    <path class="cls-10" d="M53.66,79.09s-5.4,3.56-5.4,3.71-.22.58.22.58,5.18-4.29,5.18-4.29Z"/>
    <path class="cls-10" d="M53.3,81.17l-2.61,2.53s-.18.28.12.31,2.49-2.84,2.49-2.84Z"/>
    <path class="cls-10" d="M59.64,83.14s.17.46.42.24,1.13-1.97,1.13-1.97l-1.55,1.73Z"/>
    <path class="cls-10" d="M63.6,79.44s-1.1,2.69-1.1,2.99.55.12.55.12l.55-3.11Z"/>
    <path class="cls-10" d="M64.67,79.44s-.85,2.63-.63,2.63.39.44.63,0c.25-.44,0-2.63,0-2.63Z"/>
    <g id="piernas" class="cls-8">
      <path class="cls-2" d="M56.81,78.34s.22,0,.44-.22,0-1.32.44-1.53c.44-.22.44-.66.22-.66s-.44-.44-.22-.66.66-.66.88-.88-.74,0-.74,0c0,0,.37-1.32.88-1.53s.95-.66.52-.66h-.3s1.16-1.37,2.71-1.75c.88-.22,0-.44-.66-.22-.66.22-3.73,1.59-4.17,4.08-.44,2.49,0,4.03,0,4.03Z"/>
      <path class="cls-2" d="M60.28,77.81s2.38-.46,3.73-1.39c1.35-.93,1.57-1.37,1.57-1.15s-1.35,2.02-2.65,2.54c-1.3.52-2.65,0-2.65,0Z"/>
      <path class="cls-2" d="M63.06,78.34s2.74.22,5.81-1.1c0,0-2.6,1.31-3.16,1.31s-2.54,0-2.65-.22Z"/>
    </g>
    <path id="lomo" class="cls-9" d="M76.33,68.24s-.45-.42-1.99-.2-2.63,1.75-2.85,2.63-.66,2.85.22,3.51c.88.66-1.09-.66-1.09-1.1s-.37.22-.19.66-.93-.34-1.03-1.7c0,0-.75.24-.54,1.08s-1.19-.91-1.03-1.46l.16-.55s-.66.44-.88,1.32-.23-1.53-.23-1.53c0,0-.42,0-.54.22s-.33-.88.76-1.75c0,0-.99-.34-1.26.05,0,0,.64-.71,1.28-.93,0,0,.52-.88.25-1.1s-.29-.44-.29-.44h.87s-1.4-.97-2.11-1.25c-.71-.28-4.22-2.48-4.66-2.81-.44-.32,6.36,2.37,6.36,2.37l5.04.16s4.38,1.32,3.74,2.83Z"/>
    <g>
      <path class="cls-16" d="M75.85,74.76s.42-.22.32,0-.1,1.1-1.86.88c-1.26-.16-2.18-1.22-2.52-2.45-.13-.49-.18-1-.11-1.5.22-1.75,1.32-3.07,2.63-3.29,1.32-.22,2.63.44,2.63.88s-.88-.22-1.53.44-1.41,1.31-1.36,2.3c.05.99.27,1.87.93,2.31.66.44.88.44.88.44Z"/>
      <path class="cls-15" d="M72.35,71.5s-.07.77.37.99-.11-.77.16-.5c.27.28.06.5.27.71s.66.44.66.22c0-.12.14-.31.27-.45-.02-.15-.03-.3-.04-.45-.05-.99.71-1.64,1.36-2.3.66-.66,1.53,0,1.53-.44s-1.32-1.1-2.63-.88c-1.32.22-2.41,1.53-2.63,3.29-.04.31-.03.63,0,.95l.66-1.15Z"/>
    </g>
    <g id="ala_der" data-name="ala der" class="cls-8">
      <polygon class="cls-14" points="76.95 67.71 86.52 66.34 76.1 66.72 76.95 67.71"/>
    </g>
    <path class="cls-17" d="M79.17,73.08l.88.66-.16.4-.12,1.31-.37.07s-.88-.69-1.1-.91.22-.88.22-.88l.66-.66Z"/>
    <path class="cls-13" d="M79.69,73.52s1.01.69,1.01,1.15-.76,1.7-.76,1.7c0,0,.12-1.01-.45-1.24s-.56-.69-.31-.92.5-.69.5-.69Z"/>
    <path class="cls-5" d="M77.96,70.34s.6-.92,1.07-.9,1.57,2.21,1.78,2.43.44.22.44.44v1.15c0,.16-.28.86-.47.84s-1.76-1.66-1.76-1.66l-1.07-2.3Z"/>
    <path class="cls-7" d="M78.23,69.62s-.93-.33-1.25-.13c0,0-1.14-.05-1.39.18s-1.41,1.24-1.49,2.05c-.08.81.28,2.01.54,2.29s1.09.79,1.22.75.31,0,.33-.02,1.56.26,1.78.12c.22-.14.31-.64.31-.64l.9-1.14.12-.16-.26-.27-1.07-2.3.4-.51-.13-.21Z"/>
    <g>
      <path class="cls-1" d="M77.34,71.69v-.09l.22.09h-.07c-.05,0-.1,0-.15,0Z"/>
      <path class="cls-1" d="M77.09,71.21v.71s.2.01.4.01c.21,0,.43-.01.41-.07-.04-.11-.04-.33-.04-.33l-.77-.33h0Z"/>
    </g>
    <path class="cls-4" d="M76.4,69.59s-.41.3-.19.74.44.66.88.88,1.09.65,1.09.65c0,0,.23.22.23,0s-.44-1.53-.44-1.53l-.27-.06.27-.18.27-.37s-.55-.3-.96-.18c-.41.13-.87.04-.87.04Z"/>
    <path class="cls-6" d="M75.44,71.76s.93.16.96-.08-1.13,0-1.13,0c0,0-.2.17-.29.29s-.59.83-.56.91,0,.41,0,.41c0,0,.26.12.26-.1s-.11-.33-.11-.33l.44-.88.44-.22Z"/>
    <path class="cls-3" d="M75,72.42s1.1,1.75,1.75,1.75.66-.66.66-.66l.08-.36v1.56s-2.49-.33-2.71-.55-.22-1.32-.22-1.32l.18-.44.26-.22v.22Z"/>
    <path class="cls-12" d="M76.4,69.59s-.21.18-.25.41.09.39.09.39c0,0-.35-.38-.35-.6s.52-.2.52-.2Z"/>
  </g>
</svg>