<svg xmlns="http://www.w3.org/2000/svg" viewBox="190 80 130 145">
      <g fill="#7eb7c0">
            <path d="M311.57,142.85c-.48-6.26-2.42-12.07-5.42-17.49-1.4-2.53-3.38-4.75-5.09-7.11-.24.11-.48.22-.71.33.09.54.15,1.1.28,1.63,1.18,4.85,2.9,9.65,3.45,14.57,1.02,9.16-.39,18.11-4.36,26.51-2.61,5.54-6,10.61-10.05,15.21-5.29,6-11.13,11.38-17.88,15.74-2.45,1.58-4.89,3.18-7.34,4.78.81.33,1.57.41,2.2.15,7.51-3.02,14.85-6.35,21.41-11.2,8.65-6.4,15.94-13.87,20.18-23.98,2.58-6.14,3.82-12.45,3.31-19.13Z"/>
            <path d="M251.09,201.17c-5.95,1.01-11.48,3.3-16.86,5.89-5.45,2.62-10.41,6.09-14.78,10.3-1.56,1.5-2.93,3.21-4.38,4.82.2.24.39.48.59.72.6-.12,1.22-.18,1.81-.36,4.48-1.36,8.95-2.75,13.44-4.1,4.73-1.42,9.5-2.73,14.2-4.25,1.07-.34,2.19-1.17,2.82-2.09,1.79-2.65,3.36-5.44,4.95-8.22.5-.88.8-1.87,1.19-2.82-.99.03-2-.06-2.96.11Z"/>
            <path d="M268.92,104.89c.06,2,1.92,3.84,3.86,3.82,2.64-.02,4.13-1.5,4.08-4.06-.05-2.45-1.47-3.74-4.14-3.76-2.17-.02-3.86,1.76-3.79,4Z"/>
            <path d="M310.47,104.91c-1.52-2.28-2.88-4.68-4.61-6.79-5.72-6.99-12.75-12.03-21.7-14.1-7.02-1.62-13.88-1.26-20.64,1.36-6.22,2.41-11.8,7.7-11.82,15.29,0,1.97.4,3.94.63,5.91.17,1.39.68,2.78-1.23,3.54-3.22,1.28-6.39,2.68-9.54,4.11-.58.26-.98.9-1.83,1.73,6.57,0,12.47-.02,18.37.03.76,0,1.53.36,2.29.55-.25.74-.37,1.55-.77,2.2-4.74,7.79-9.53,15.55-14.29,23.33-4.58,7.49-9.12,15.01-13.72,22.49-1.54,2.5-3.09,5-4.66,7.54-10.16-30.29-4.22-53.37-.66-67.19,1.04-4.05,1.87-7.25,2.06-9.69.22-2.83-.34-4.61-1.67-5.28-1.9-.96-4.9.68-6.88,2.05-1,.77-2.76,2.48-4.41,5.86-.18.36-.35.73-.52,1.1-.68,1.39-1.4,3.05-2.11,4.99-6.05,2.51-9.4,9.23-11.04,13.84-.33,1.02-.65,2.15-.96,3.41-4.56,14.75-7.87,43,14.3,78.2,0,0,3.55.24,8.15,0,1.62-.03,3.36-.2,5.18-.49,2.38-.33,4.79-.83,6.98-1.57,0,0,0,0,0,0,19.03-5.4,42.73-20.26,45.88-30.83-8.81,6.9-17.31,10.59-26.64,13.57-7.84,2.5-15.92,4.05-24.12,4.91h-9.54s-23.77-33.68-18.38-64.73c.49-2.47,2.31-9.23,8.17-14.54.77-.66,1.43-1.15,1.94-1.5-4.82,13.3-8.78,39.09,8.52,77.16,1.13.06,2.06.34,2.85.12,3.63-1.04,7.23-2.18,10.81-3.37,7.54-2.5,14.61-5.94,21.03-10.67,6.76-4.98,12.45-10.85,15.93-18.63,4.67-10.42,3.01-22.79-4.99-31.4-1.64-1.76-3.16-3.75-4.23-5.88-1.46-2.92-1.4-6.1,0-9.11,2.05-4.39,5.81-6.66,10.33-7.55,10.03-1.97,19.59-.22,28.58,4.45,3.19,1.66,6.06,3.93,9,5.88,0,.05.03-.15-.05-.28Z"/>
      </g>
</svg>
