<?xml version="1.0" encoding="UTF-8"?>
<svg id="Capa_1" data-name="Capa 1" xmlns="http://www.w3.org/2000/svg" xmlns:xlink="http://www.w3.org/1999/xlink" viewBox="0 0 128 128">
  <defs>
    <style>
      .cls-1 {
        fill: #fafafa;
      }

      .cls-2 {
        fill: #f8f7f7;
      }

      .cls-3 {
        fill: #cfcece;
      }

      .cls-4 {
        fill: #141414;
      }

      .cls-5 {
        fill: #fff;
      }

      .cls-6 {
        fill: #49515c;
      }

      .cls-7 {
        fill: #e3a66d;
      }

      .cls-7, .cls-8, .cls-9, .cls-10, .cls-11, .cls-12, .cls-13, .cls-14, .cls-15, .cls-16 {
        isolation: isolate;
      }

      .cls-8 {
        fill: #3b698a;
      }

      .cls-17 {
        fill: none;
      }

      .cls-9 {
        fill: #7b5b43;
      }

      .cls-10, .cls-18 {
        fill: #743e20;
      }

      .cls-11 {
        fill: #c98144;
      }

      .cls-19 {
        fill: #eaeaea;
      }

      .cls-20 {
        fill: #d6d7d7;
      }

      .cls-21 {
        fill: #454f5a;
      }

      .cls-22 {
        fill: #404d58;
      }

      .cls-13 {
        fill: #4b83a7;
      }

      .cls-23 {
        fill: #e0e2e1;
      }

      .cls-24 {
        fill: #faf8f8;
      }

      .cls-14 {
        fill: #92c3dc;
      }

      .cls-15 {
        fill: #47505b;
      }

      .cls-25 {
        fill: #ddf0f7;
      }

      .cls-26 {
        fill: #161617;
      }

      .cls-27 {
        fill: #bcbbbb;
      }

      .cls-28 {
        clip-path: url(#clippath);
      }

      .cls-29 {
        fill: #f4f3f4;
      }

      .cls-16 {
        fill: #414c5c;
      }
    </style>
    <clipPath id="clippath">
      <circle class="cls-17" cx="64" cy="64" r="62.17"/>
    </clipPath>
  </defs>
  <g>
    <path class="cls-16" d="M39.24,53.98s-6.22,1.73-6.17,2.02c.06.35.25.58.53.47s5.64-2.48,5.64-2.48Z"/>
    <path class="cls-16" d="M39.45,54.39s-5.69,2.29-5.7,2.5-.13.43.38.32,5.32-2.82,5.32-2.82Z"/>
    <path class="cls-16" d="M39.45,54.94l-4.57,2.55s-.21.64,0,.58,4.57-3.13,4.57-3.13Z"/>
    <path class="cls-16" d="M39.54,55.81s-3.7,2.44-3.7,2.54-.15.4.15.4,3.55-2.94,3.55-2.94Z"/>
    <path class="cls-16" d="M46.36,56.05s-.75,1.84-.75,2.05.38.08.38.08l.38-2.13Z"/>
    <path class="cls-16" d="M47.1,56.05s-.58,1.8-.43,1.8.26.3.43,0,0-1.8,0-1.8Z"/>
    <g>
      <path class="cls-26" d="M35.31,38.22c-.19-.01-.39-.02-.57-.09-1.42-.5-5.43-1.92-6.41-2.53-1.2-.75-10.52-9.02-10.97-9.17,0,0-.15,0,.3.6s5.18,5.46,6.16,6.16c1.05.75,1.5,1.35,1.5,1.35,0,0-11.58-6.61-12.18-6.61s5.41,4.06,6.46,4.66c1.05.6,4.62,2.25,4.56,2.4s-11.48-3.9-14.49-4.36c-3.01-.45,7.37,3.46,8.72,3.91,1.35.45,4.66,1.05,4.66,1.2s.6.6-1.95,0c-2.56-.6-9.92-1.5-12.18-1.35-2.25.15,10.97,2.41,11.88,2.41s1.25.06,1.15.26-12.12.19-12.72.79c-.6.6,11.44.3,11.66.45s.22.15-.38.3-9.17,1.8-9.02,1.95,8.12-.45,8.12-.3-4.51,1.5-4.36,1.65,4.51,0,4.51.15c0,0-.45.45-.3.6s1.5.3,1.65.45-.15.75.15.9,1.65.3,1.65.3c0,0,0,.6.15.6s.76-.15.83,0-.08.75.07.75.61-.15.61,0,0,.45.15.6.64,0,.84,0,.06.3.06.3h1.16s-.11.75.19.75h1.05s-.3.15.15.45,1.05.15,1.05.15c0,0,0,.45.45.6s.45,0,.6.15.15.3.3.45.6,0,.75.15.3.15.45.3.45-.15.75.15.3.6.75.6.44-.3.6,0,.61.45,1.06.45,0,.19.3.4.45-.2.68,0,.07.5.52.5.58-.15.66,0-.06.3.24.3.72-.15.81,0,.39.15.54.3.42,0,.42,0c0,0,.03.15.48.3s1.2-.3,1.2-.45.3,0,.45.15.15.45.15.45c0,0-7.22,3.01-8.87,3.01s.45.75.6.75,0,.45.15.6.15.3.75.3,0,.75.3.9.45,0,.6.15.3.15.45.15.3.3.45.45,1.2,0,1.35.15.45.45.6.45.9-.15,1.05-.15.15-.45.45-.3.15.15.3.3.32.3.54.15.37-.15.52-.15.3-.15.45-.15.3-.15.45-.15-.15.15.15.15.45.15.6,0,.15-.15.45-.15h.75s0-.3.15-.3.6.15.75,0-.15-.15.3-.15.6-.15.6-.15h1.35s-.3-.28,0-.29.9-.01.9-.01c0,0,.45-2.1.15-2.86,0,0,1.95,0,3.16-1.05,0,0,.45-.15.45,0s.45.3.75.15.45,0,.75-.15.15-.3.45-.3c.38,0,.76.24.84-.18.04-.22.21-.28.37-.12q.15.15.45.15t.45-.15c.15-.15.45-.3.45-.15s.45.3.6.3.45-.3.6-.3.45.15.45.15c0,0,.45.3.6.15s.15-.3.45-.3.45-.3.6-.15.3.15.45.15.15-.15.3-.15.3-.15.45,0,.75-.15.9-.15h.6s.3.15.6,0,.15,0,.45-.15c.19-.09.41-.09.6,0,.3.15,0,0,.6-.15s.3.15.45.15.45,0,.6-.15.3,0,.45,0,.6-.15.6-.15c0,0,.15-.15.45-.15s0-.15.3,0,.45,0,.6,0,.3,0,.45-.15.3,0,.3,0c0,0,.45.15.6,0s.3-.3.45-.3,0,.15.45.15.6-.6.75-.6.15-.15.3,0,.45.15.75,0,.15-.45.45-.45.6.15.6.15c0,0,.75.15,1.05,0s.15-.6.6-.45,2.56,1.35,2.86,1.5.15-.45.15-.45c0,0-2.56-2.71-2.56-2.86s-.15-.3.15-.3,5.26,3.31,5.41,3.31.15-.15.15-.3-3.31-3.31-4.36-3.61c0,0-.3-.45,0-.45s5.41,2.25,6.31,2.25.3-.3.3-.3c0,0-4.51-2.56-5.41-2.71-.9-.15-.3-.3-.15-.3s4.51.75,6.01.6c1.5-.15,1.8-.15,1.95-.3s-.6-.15-.6-.15c0,0-6.01-.45-6.31-.75l-.3-.3s6.35-.59,7.24-1.05c.88-.46,1.78-.76,1.93-1.06.15-.3-.3,0-.45,0s-6.76,1.8-7.82,1.35c0,0,7.22-1.65,8.12-4.66,0,0-4.81,3.91-7.67,3.91,0,0,5.26-2.25,5.86-4.36,0,0-4.21,3.91-8.12,4.66-3.91.75-8.27.45-8.27.45,0,0-1.65.6-2.1.6s-12.03.9-12.03.9c0,0-1.05-.6-1.8-.75s-3.91-.3-4.06-.3-.6-.15-.6-.15l-1.2-.45s-7.97-3.46-9.92-5.41c-1.05-1.05-1.6-1.43-1.74-1.44Z"/>
      <path class="cls-22" d="M26.67,35.75v-.57s.87-.03,1.11.57c.24.6,1.59,2.71,1.89,3.01s2.1.75,2.41,1.05.6.6.9.75,6.61,5.56,7.22,5.71.9,0,.9.3-.45.6.15.9c.6.3,1.29-.3,1.47,0s-.12,1.35.18,1.5.52-.15.71,0-.56,1.2-.86,1.35-.52.15-.71,0-.19-1.2-.19-1.2c0,0-.3.15-.45,0s0-.6-.3-.6-1.05-.15-1.05-.45-.15-.45-.45-.6-6.41-4.15-6.51-4.4.2-.56-.1-.71-.6,0-.75-.3-.45-.75-.45-.75c0,0-.75-.15-1.05-.3s-.6-.45-.6-.45l.75-.15s-.3,0-.75-.15-1.32-.27-1.2-.45c.3-.45.3-.6-.15-.6s-1.8-.9-1.8-.9c0,0-.45-.16-.3-.45s.45-.3.45-.3c0,0-1.05-.45-1.05-.75v-.9c0-.15.6-.15.6-.15Z"/>
      <g id="piernas" class="cls-12">
        <path class="cls-6" d="M41.7,55.3s.15,0,.3-.15,0-.9.3-1.05.3-.45.15-.45-.3-.3-.15-.45l.6-.6c.15-.15-.51,0-.51,0,0,0,.25-.9.6-1.05s.65-.45.35-.45h-.21s.8-.94,1.86-1.2c.6-.15,0-.3-.45-.15s-2.56,1.09-2.86,2.8c-.3,1.71,0,2.76,0,2.76Z"/>
        <path class="cls-6" d="M44.08,54.94s1.63-.32,2.56-.96,1.08-.94,1.08-.79-.93,1.39-1.82,1.75c-.89.36-1.82,0-1.82,0Z"/>
        <path class="cls-6" d="M45.99,55.3s1.88.15,3.98-.75c0,0-1.78.9-2.17.9s-1.74,0-1.81-.15Z"/>
      </g>
      <path id="lomo" class="cls-15" d="M55.09,48.37s-.31-.29-1.36-.14-1.8,1.2-1.95,1.8-.46,1.95.15,2.41-.75-.45-.75-.75-.26.15-.13.45-.64-.23-.71-1.17c0,0-.52.17-.37.74s-.81-.63-.71-1l.11-.38s-.45.3-.6.9-.16-1.05-.16-1.05c0,0-.29,0-.37.15s-.23-.6.52-1.2c0,0-.68-.23-.87.03,0,0,.44-.49.88-.64,0,0,.35-.6.17-.75s-.2-.3-.2-.3h.59s-.96-.66-1.45-.86-2.89-1.7-3.19-1.93,4.36,1.62,4.36,1.62l3.46.11s3.01.9,2.57,1.94Z"/>
      <g>
        <path class="cls-25" d="M54.76,52.84s.29-.15.22,0-.07.75-1.27.6c-.86-.11-1.49-.83-1.73-1.68-.09-.33-.12-.69-.08-1.03.15-1.2.9-2.1,1.8-2.25s1.8.3,1.8.6-.6-.15-1.05.3-.97.9-.94,1.58c.03.68.18,1.28.64,1.58.45.3.6.3.6.3Z"/>
        <path class="cls-24" d="M52.36,50.61s-.05.53.26.68-.08-.53.11-.34c.19.19.04.34.19.49s.45.3.45.15c0-.08.1-.21.18-.31-.01-.1-.02-.2-.03-.31-.03-.68.48-1.12.94-1.58s1.05,0,1.05-.3-.9-.75-1.8-.6c-.9.15-1.65,1.05-1.8,2.25-.03.21-.02.43,0,.65l.45-.79Z"/>
      </g>
      <g id="ala_der" data-name="ala der" class="cls-12">
        <path class="cls-21" d="M57.64,49.43s8.72-1.95,9.32-1.95,3.31-.15,3.31-.15c0,0,4.51-1.35,5.11-1.65s1.05-.6,1.05-.45-.45,1.05-.9,1.2-1.5.45-1.5.45l-.33.43-3.13.47-.35.23-2.8.23s-.41.08-.8.27c-.7.33-5.36,1.08-6.88,1.17-.48.03-1.64.51-1.64.51l-.45-.75Z"/>
        <polygon class="cls-21" points="55.52 48.01 62.08 47.07 54.93 47.33 55.52 48.01"/>
      </g>
      <path class="cls-3" d="M29.83,36.51s4.3,1.71,4.85,1.91c.56.2,1.61.93,1.61.93,0,0,2.72,1.97,3.46,2.42.75.45,3.59,1.91,3.59,1.91,0,0,3.62,1.61,4.37,1.95s2.71.35,3.31.35,1.41.08,2.06.34c.65.26,2.02,1.31,2.01,1.69,0,0-.68-1.06-1.92-1.24s-1.99-.19-2.75-.19-2.29-.26-2.29-.26l-6.43-3.05-4.28-2.56s-.98-.71-1.8-1.33-2.48-1.22-3.08-1.37-2.71-1.5-2.71-1.5Z"/>
      <polygon id="Iluminación" class="cls-3" points="54.63 47.03 65 46.43 67.03 46 68.84 45.46 74.86 45.19 72.97 45.68 69.06 45.83 66.66 46.43 63.65 46.88 54.93 47.33 54.63 47.03"/>
      <path class="cls-19" d="M57.4,51.99s.69.47.69.79-.52,1.17-.52,1.17c0,0,.08-.69-.31-.85s-.39-.47-.21-.63.35-.47.35-.47Z"/>
      <path class="cls-9" d="M56.39,49.4s.41-.63.73-.62,1.07,1.52,1.22,1.67.3.15.3.3v.79c0,.11-.19.59-.32.58s-1.2-1.14-1.2-1.14l-.73-1.58Z"/>
      <path class="cls-11" d="M56.34,49.27s-.63-.23-.86-.09c0,0-.78-.03-.95.13s-.97.85-1.02,1.41c-.05.56.19,1.38.37,1.57s.74.54.84.52.21,0,.23-.01,1.07.18,1.22.08.21-.44.21-.44l.61-.78.08-.11-.18-.19-.73-1.58.28-.35-.09-.15Z"/>
      <g>
        <path class="cls-4" d="M55.61,50.41v.49s.58.03.56-.04-.03-.22-.03-.22l-.53-.23Z"/>
        <path class="cls-4" d="M55.61,50.41v.49s.14,0,.28,0c.15,0,.29,0,.28-.05-.03-.07-.03-.22-.03-.22l-.53-.23h0Z"/>
      </g>
      <path class="cls-7" d="M54.18,50.86s-.28.21-.13.51.3.45.6.6.75.45.75.45c0,0,.16.15.16,0s-.3-1.05-.3-1.05l-.19-.04.19-.12.18-.25s-.38-.21-.66-.12-.6.03-.6.03Z"/>
      <path class="cls-10" d="M54.48,50.79s.63.11.66-.06-.78,0-.78,0c0,0-.14.11-.2.2s-.41.57-.38.63,0,.28,0,.28c0,0,.18.08.18-.07s-.08-.23-.08-.23l.3-.6.3-.15Z"/>
      <path class="cls-18" d="M55.14,49.3s-.14.12-.17.28.06.26.06.26c0,0-.24-.26-.24-.41s.35-.13.35-.13Z"/>
    </g>
    <g id="patas">
      <path class="cls-27" d="M43.36,55.3h-.85s-.3.6-.45.75-.75.3-.9.3h-.3s-.15.45-.6.45c0,0,0-.15-.15-.07s0,.37.15.37.6-.3.75-.3.15.15.15.15c0,0-.6.75-.75.75s-.43,0-.36,0c0,0-.39.15-.09.3s.6,0,.75-.15,1.05-.6,1.2-.75.3-.15.75-.75.75-1.05.75-1.05"/>
      <path class="cls-27" d="M45.51,55.61c.2.04.26.29.11.42-.51.46-2.27,2-3.16,2.12-1.05.15-1.02-.36-.89-.4s.28-.05.28-.05c0,0,0,.15.15.15s1.48-.61,1.5-.75c0,0,.3-.15.13-.3-.1-.08-.3.02-.51.23s-.37.36-.82.51c0,0-.45-.15-.3-.3s.45-.15.45-.15c0,0,.3-.15.45-.3s.15-.3.3-.45c.11-.11,1.05,0,1.35-.15s.6-.6.75-.6c.05,0,.12,0,.2.01Z"/>
    </g>
  </g>
  <g class="cls-28">
    <path class="cls-14" d="M8.21,94.78c1.99-2.08,6.32-4.51,6.89-4.62.71-.14,1.14-.46,1.14-.46l.68-.68s.46-2.96,1.14-2.96,1.14-.46,1.14-.46c0,0,2.96-3.65,3.19-3.42.05.05.19.2.38.4.62.66,1.79,1.82,2.36,1.65.74-.23,1.6,0,1.6.46s.68,1.14.68,1.14c0,0,.91-1.37,1.6-1.82s.13-.91,1.09-1.14,1.6-.7,1.74-.69,1.5-1.36,1.5-1.36c0,0,.68-1.82,1.14-2.05s.91,0,1.14-.68.46-1.37,1.37-2.05c.91-.68,2.73-2.96,2.73-2.96,0,0,3.87,4.33,4.33,4.33s.91.23,1.37.46,1.82,3.19,1.82,3.19l-7.06,18-14.13,4.1-13.74-1.2-1.62-2.63-.6-1.01-.62-1.11-.56-1.05-.69-1.37Z"/>
    <path class="cls-14" d="M75.21,77.67l2.28-3.65h.61l.77-.91,5-5.47s3.87,3.42,4.1,3.65,1.14,2.28,1.14,2.28h.91l2.51,3.42,1.52.68,1.67,2.96,2.28,2.51,2.96-2.51,12.76,12.76,1.82-1.14,3.61,3.61-1.59,2.92-1.45,2.4-1.37,1.98-42.63.03,3.1-25.52Z"/>
    <path class="cls-8" d="M13.74,103.9l1.14,1.52,3.37,4.37,4.15,3.97c1.1,1.28,3.28,2.91,4.73,3.78l6.19,4.32,5.92,2.36,8.26,3.73,7.94,1.43,7.95.48,6.94-.45,7.57-1.34,7.5-2.09,4.19-1.82,24.54-20.81s-14.36-8.43-16.64-11.39l-.91.23-.54-.23-7.21-7.06-2.51,2.51-1.83.33-.48.09-1.94-2.92-1.67-1.82-2.05-1.82-2.28-3.87h-1.59s-1.83-2.51-1.83-2.96-.91-.46-.91-.46h-.38l-2.81-4.79h-1.11l-2.08-2.73-3.19-3.65-4.56,6.61-1.37.23-1.37,3.87s-1.37.91-1.6,1.14-1.37.23-1.37.23l-2.73,3.65s-1.14.23-1.37.46-1.6,1.14-2.28,1.6c-.68.46-3.42,4.33-3.42,4.33l-6.61,7.98s-3.42-2.73-3.65-2.73-1.82,2.05-1.82,2.05h-1.14l-2.73,2.96s-.68.91-1.14.91h-.68s-6.38,4.1-7.75,4.56c-1.37.46-3.75,2.07-3.75,2.07l.88,1.2Z"/>
    <path class="cls-13" d="M113.19,102.87c-2.25-1.34-13.71-8.08-15.77-10.76l-1.69.26-.54-.23-6.34-7.23-3.12,2.47-1.55.28-.76.15-2.2-2.73-1.67-1.82-2.05-1.82-2.05-3.87h-1.82s-1.6-2.28-1.6-2.73-1.14-.68-1.14-.68l-.18.09-2.81-4.79-1.31-.09-2.08-2.73-2.63-3.01-.33-.18-.34,1.59.46,1.67-1.6,1.87v2.12l-.23,2.44.91,2.33v3.28l-.91.58,1.37,4.75.23,2.73-.91,1.82.91,2.51-.68,1.12s2.28,1.85,2.28,2.07,1.6,2.51,1.6,2.51l-.46.68,1.14,2.96-.23.68,1.82,2.28h1.31l21.74,21.01,6.83-3.65,5.48-3.8,4.36-3.71,5.1-5.37,3.26-4.4-1.79-.63Z"/>
    <path class="cls-2" d="M101.79,81.46s-.32.94,0,1.08.54.6,1,1.51.68,1.14.68,1.37-.68-.23-.68-.23v1.14c0,.68-.23.77-.23,1.07s-.23.3-.23.53,2.73,2.05,3.19,2.28l.46.23-.23-1.6s3.19,3.42,3.42,3.87c.23.46.23-.46.23-.46,0,0-1.14-2.05-1.14-2.28s3.89,2.53,4.22,2.86.11.33.56.33.68.23.68.23l-11.94-11.94Z"/>
    <path class="cls-29" d="M116.23,93.17s.23.68.46.91.23,0,.46.68c.23.68.23.91.23.91,0,0,.68-.23.91-.23h.46l-2.51-2.51v.23Z"/>
    <path class="cls-2" d="M84.5,68.2l.35,2.18,2.22,4.56s-1.37-.68-1.6-.91-.78-.58-.62-.06.24.74.32.97-.25.58-.32.74-.35.69-.35.69l1.65,3.58,4.89,4.33s-1.47-2.05-1.47-3.19-1.14-1.37-1.37-2.28c-.23-.91-.23-1.14-.23-1.14l2.05,2.05c.23.23.89.3,1.02,1.06.12.76.35.3,1.26.99s3.07,3.65,3.07,3.65c0,0,.35-.23-.11-1.37-.46-1.14-.68-.91-.91-1.82s-.68-1.37-.68-1.6.68.68.91.68,2.96,1.82,2.96,1.82h.46l-2.28-2.51-1.67-2.96-1.52-.68-2.51-3.42h-.91l-1.14-2.28-3.47-3.09Z"/>
    <path class="cls-5" d="M39.03,78.93l-1.42,3.65-.21.46s1.14-1.16,1.47-1.15c.33,0,1.02,4.57,1.25,4.34.23-.23.46-1.14.68-1.6s-.11-1.6.29-1.6,1.37,1.37,1.37,1.37l1.02-.73s-1.99-2.46-1.54-2.92,1.6,1.37,2.05,1.6c.37.18,1.95-1.61,2.56-2.33-.43-.85-.99-1.87-1.25-2-.46-.23-.91-.46-1.37-.46s-4.33-4.33-4.33-4.33c0,0,.51,5.47.74,5.7h-1.32Z"/>
    <path class="cls-1" d="M60.17,69.93v1.94s1.6,3.76,2.05,4.22,0,.51,0,.51c0,0-.82-1.17-1.09-1.07s-.4,1.13-.45,1.07-.96.63-.96.85-.23.68-.23.68c0,0,1.57-.27,1.47-.48s.35-.21.35.02,2.05,3.19,2.28,3.42.91.46.91.46c0,0,.46.68.68.91l.23.23s-.68-1.37-.46-1.82c.23-.46.91.91,1.6,1.37.68.46,1.14.91,1.6,1.14.46.23,1.6.91,1.6.91h.36s1.46,2.73,2.14,3.19c.68.46.91.23,1.6.91.68.68,1.6,1.82,1.6,1.82l.23-.23s-3.02-3.62-3.33-4.32.14-.47.14-.47c0,0,.91.68,1.14.91s.46,0,.46,0l-13.9-16.18Z"/>
    <path class="cls-23" d="M56.07,85.88l4.33-4.79-.34-2.32s-.8.73-1.26,1.18-1.37,2.73-1.6,2.96-1.14,2.96-1.14,2.96Z"/>
    <path class="cls-20" d="M47.27,79.37s.11.74.11,1.2.23.46.23.91-.23.68.23.91c.46.23,1.37-.46,2.05-1.14.68-.68,1.14-1.14,1.14-1.14,0,0,.23-1.14.46-1.82.23-.68.23-1.14.46-1.37.23-.23.23-.68.68-.91s1.14-.46,1.6-.68.91-.68,1.37-.91,1.14-.68,1.37-.91.62-.23.46.23c0,.02,1.55-.81,1.6-.46s-1.49,1.64-1.6,1.82c-.08.14-.59-.65-.69-.49-.55.96-1.27,2.24-1.37,2.54-.23.68-.91,1.14-1.14,1.6s-.68.68-.91,1.14-.13.9-.98,1.59-1.14.92-1.34,1.49-.87,1.25-.99,1.37-.57.57-.57.57c0,0-.91.23-1.37.68s-6.38,9.34-6.38,9.34c0,0,6.81-7.78,7.85-8.56,1.04-.78,2.14-3.06,2.62-3.4s1.38-1.71,1.61-1.94.23-.91.68-.91.23.68.68.23,1.6-2.28,1.82-2.28,0,.91,0,1.14-.5.48.43.13c.94-.36,1.16-1.5,1.85-2.18.68-.68,1.6-1.6,2.05-1.82s0-.7,0-1.15,0-.44-.35-1.24c-.34-.8-.79-2.62-.34-3.54.46-.91-.39-.91.6-1.71.99-.8,1.11-.91,1.11-1.37s-.23-3.19-.23-3.19l-4.33,6.15-1.6.46-1.37,3.65-1.37,1.14-1.37.23-2.73,3.65-1.37.46-.68.51Z"/>
    <path class="cls-1" d="M60.06,78.77s6.26,5.06,6.72,5.74,2.73,4.33,2.73,4.33c0,0-1.13-.91-1.25-.68s1.47,2.96,1.47,2.96l2.51,4.56-5.01-5.24s-1.14-3.87-1.6-3.87-.46-.46-.46-.46l-.1,1.12-1.49-.89s-.23-.46-.46-1.14-2.96-3.42-2.96-3.42v-1.14c0-.46-.11-1.87-.11-1.87Z"/>
    <path class="cls-2" d="M88.76,85.04v2.22s.91,1.43,1.14,2.11c.23.68.23,1.6.46,1.82s-.8.28-.8.28c0,0,.64,2.81.83,3.09s.65-1.55.65-1.77-.23-.46-.23-.46h.46l2.77,2.26s-1.49-.48-1.67,0-.26,1.84-.26,1.84c0,0,4.86,4.33,5.08,4.33s0-.38,0-.38c0,0-2.73-2.58-2.05-3.04s2.96,2.05,2.96,2.05c0,0-2.05-3.42-1.82-3.42s.46-.23.46-.23c0,0-.23-.46-.46-.91s-.23-.68,0-.68.46,1.37,1.37,1.37,1.46-.28,1.75-.03,3.49,2.54,3.49,2.54l-3.49-4.08-1.98-1.84-.91.23-.54-.23-7.21-7.06Z"/>
    <path class="cls-20" d="M88.76,85.04l-2.51,2.51-2.3.43-1.8,2.53s-2.28.46-2.73.68-2.96,2.94-2.96,2.94c0,0-1.14,2.53-1.14,2.76s-.23.23,0,.23,5.47-4.56,5.92-4.79.75-.3.75-.3c0,0-.39.76,0,.87s.85-.8,1.53-1.03c.68-.23.98-.28.98-.28l1.28-.52,2.99-3.25v-2.79Z"/>
  </g>
  <path class="cls-2" d="M61.59,67.31c-.31.23,1.45,1.82,1.45,1.82v1.6s1.14,1.14,1.37,1.6.68.68.68.68v-.68c0-.68-.68-.91-.68-1.14s.23-.46.23-.68,1.82,2.05,1.82,2.05v2.28s.91,1.37,1.14,1.6l.23.23v-.46l-.23-.23s.23-.46.46-.46,1.37,2.51,1.37,2.51l.46.46v-.46c0-.23-.68-1.82-.68-2.05s1.6,1.6,1.82,2.05.23,1.6.23,1.82,2.73,3.42,2.73,3.42l-2.73-7.75s0-.23.23-.23,1.6,2.28,1.6,2.28l2.28.91.23,2.28s1.6,1.82,1.6,2.05.23.68.23.68c0,0-.46,0-.46.23s0,.46.23.68q.23.23.23.46c0,.23-.23,0-.46,0s0,.46,0,.46c0,0,1.82,2.73,2.05,2.51s-.23-2.28-.23-2.28c0,0,0-.46.23-.46s1.37,1.14,1.37,1.14l1.37.23,1.6,1.82.91-.91c.23-.23-.23-.23-.23-.23l-3.87-4.56-2.05-1.82-2.28-3.87h-1.59s-1.6-2.51-1.83-2.96-1.29-.46-1.29-.46l-2.81-4.79h-1.11l-5.04-5.92s.34,2.95.23,3.65"/>
</svg>